# xmcd
#
# Track frame offsets:
# 150
# 13778
# 33409
# 52472
# 69583
# 90897
# 115171
# 135489
#
# Disc length: 2405 seconds
#
# Revision: 0
# Processed by: cddbd v1.4PL0 Copyright (c) Steve Scherf et al.
# Submitted via: Axialis_AX_CDPlayer 2.6
#
DISCID=67096308
DTITLE=Little Feat - Feats Don't Fail Me Now
DYEAR=1900
DGENRE=
TTITLE0=Rock and Roll Doctor
TTITLE1=Oh Atlanta
TTITLE2=Skin It Back
TTITLE3=Down The Road
TTITLE4=Spanish Moon
TTITLE5=Feats Don't Fail Me Now
TTITLE6=The Fan
TTITLE7=Cold Cold Cold/Triple Face Boogie
EXTD=
EXTT0=
EXTT1=
EXTT2=
EXTT3=
EXTT4=
EXTT5=
EXTT6=
EXTT7=
PLAYORDER=
